REM DIRINDEX 1\2,1\3,1\4
REM DIRNAME cjc151,folder01,folder02,folder03
TITLE ""
FILE "021 021_Lesson 5_TOEFL_3900.mp3" MP3
  TRACK 01 AUDIO
    TITLE "4:cjc151_0886"
    INDEX 01 00:00:00
  TRACK 02 AUDIO
    TITLE "0:"
    INDEX 01 00:01:50
  TRACK 03 AUDIO
    TITLE "2:cjc151_0887"
    INDEX 01 00:02:30
  TRACK 04 AUDIO
    TITLE "0:"
    INDEX 01 00:03:51
  TRACK 05 AUDIO
    TITLE "3:cjc151_0888"
    INDEX 01 00:05:28
  TRACK 06 AUDIO
    TITLE "0:"
    INDEX 01 00:08:73
  TRACK 07 AUDIO
    TITLE "2:cjc151_0889"
    INDEX 01 00:10:51
  TRACK 08 AUDIO
    TITLE "0:"
    INDEX 01 00:11:62
  TRACK 09 AUDIO
    TITLE "3:cjc151_0890"
    INDEX 01 00:13:41
  TRACK 10 AUDIO
    TITLE "0:"
    INDEX 01 00:17:16
  TRACK 11 AUDIO
    TITLE "2:cjc151_0891"
    INDEX 01 00:18:74
  TRACK 12 AUDIO
    TITLE "0:"
    INDEX 01 00:20:10
  TRACK 13 AUDIO
    TITLE "3:cjc151_0892"
    INDEX 01 00:21:66
  TRACK 14 AUDIO
    TITLE "0:"
    INDEX 01 00:24:71
  TRACK 15 AUDIO
    TITLE "2:cjc151_0893"
    INDEX 01 00:26:54
  TRACK 16 AUDIO
    TITLE "0:"
    INDEX 01 00:27:49
  TRACK 17 AUDIO
    TITLE "3:cjc151_0894"
    INDEX 01 00:29:29
  TRACK 18 AUDIO
    TITLE "0:"
    INDEX 01 00:32:33
  TRACK 19 AUDIO
    TITLE "2:cjc151_0895"
    INDEX 01 00:34:14
  TRACK 20 AUDIO
    TITLE "0:"
    INDEX 01 00:35:12
  TRACK 21 AUDIO
    TITLE "3:cjc151_0896"
    INDEX 01 00:36:66
  TRACK 22 AUDIO
    TITLE "0:"
    INDEX 01 00:40:23
  TRACK 23 AUDIO
    TITLE "2:cjc151_0897"
    INDEX 01 00:42:02
  TRACK 24 AUDIO
    TITLE "0:"
    INDEX 01 00:43:11
  TRACK 25 AUDIO
    TITLE "3:cjc151_0898"
    INDEX 01 00:44:67
  TRACK 26 AUDIO
    TITLE "0:"
    INDEX 01 00:48:26
  TRACK 27 AUDIO
    TITLE "2:cjc151_0899"
    INDEX 01 00:50:07
  TRACK 28 AUDIO
    TITLE "0:"
    INDEX 01 00:51:30
  TRACK 29 AUDIO
    TITLE "3:cjc151_0900"
    INDEX 01 00:53:11
  TRACK 30 AUDIO
    TITLE "0:"
    INDEX 01 00:57:05
  TRACK 31 AUDIO
    TITLE "2:cjc151_0901"
    INDEX 01 00:58:60
  TRACK 32 AUDIO
    TITLE "0:"
    INDEX 01 00:59:61
  TRACK 33 AUDIO
    TITLE "3:cjc151_0902"
    INDEX 01 01:01:40
  TRACK 34 AUDIO
    TITLE "0:"
    INDEX 01 01:05:36
  TRACK 35 AUDIO
    TITLE "2:cjc151_0903"
    INDEX 01 01:07:19
  TRACK 36 AUDIO
    TITLE "0:"
    INDEX 01 01:08:27
  TRACK 37 AUDIO
    TITLE "3:cjc151_0904"
    INDEX 01 01:10:04
  TRACK 38 AUDIO
    TITLE "0:"
    INDEX 01 01:14:47
  TRACK 39 AUDIO
    TITLE "2:cjc151_0905"
    INDEX 01 01:16:26
  TRACK 40 AUDIO
    TITLE "0:"
    INDEX 01 01:17:37
  TRACK 41 AUDIO
    TITLE "3:cjc151_0906"
    INDEX 01 01:19:19
  TRACK 42 AUDIO
    TITLE "0:"
    INDEX 01 01:23:36
  TRACK 43 AUDIO
    TITLE "2:cjc151_0907"
    INDEX 01 01:25:17
  TRACK 44 AUDIO
    TITLE "0:"
    INDEX 01 01:26:19
  TRACK 45 AUDIO
    TITLE "3:cjc151_0908"
    INDEX 01 01:27:71
  TRACK 46 AUDIO
    TITLE "0:"
    INDEX 01 01:32:06
  TRACK 47 AUDIO
    TITLE "2:cjc151_0909"
    INDEX 01 01:33:60
  TRACK 48 AUDIO
    TITLE "0:"
    INDEX 01 01:34:67
  TRACK 49 AUDIO
    TITLE "3:cjc151_0910"
    INDEX 01 01:36:48
  TRACK 50 AUDIO
    TITLE "0:"
    INDEX 01 01:40:74
  TRACK 51 AUDIO
    TITLE "2:cjc151_0911"
    INDEX 01 01:42:51
  TRACK 52 AUDIO
    TITLE "0:"
    INDEX 01 01:43:66
  TRACK 53 AUDIO
    TITLE "3:cjc151_0912"
    INDEX 01 01:45:44
  TRACK 54 AUDIO
    TITLE "0:"
    INDEX 01 01:49:02
  TRACK 55 AUDIO
    TITLE "2:cjc151_0913"
    INDEX 01 01:50:60
  TRACK 56 AUDIO
    TITLE "0:"
    INDEX 01 01:52:00
  TRACK 57 AUDIO
    TITLE "3:cjc151_0914"
    INDEX 01 01:53:55
  TRACK 58 AUDIO
    TITLE "0:"
    INDEX 01 01:57:49
  TRACK 59 AUDIO
    TITLE "2:cjc151_0915"
    INDEX 01 01:59:26
  TRACK 60 AUDIO
    TITLE "0:"
    INDEX 01 02:00:43
  TRACK 61 AUDIO
    TITLE "3:cjc151_0916"
    INDEX 01 02:02:28
  TRACK 62 AUDIO
    TITLE "0:"
    INDEX 01 02:05:31
  TRACK 63 AUDIO
    TITLE "2:cjc151_0917"
    INDEX 01 02:07:06
  TRACK 64 AUDIO
    TITLE "0:"
    INDEX 01 02:08:11
  TRACK 65 AUDIO
    TITLE "3:cjc151_0918"
    INDEX 01 02:09:68
  TRACK 66 AUDIO
    TITLE "0:"
    INDEX 01 02:12:58
  TRACK 67 AUDIO
    TITLE "2:cjc151_0919"
    INDEX 01 02:14:47
  TRACK 68 AUDIO
    TITLE "0:"
    INDEX 01 02:15:72
  TRACK 69 AUDIO
    TITLE "3:cjc151_0920"
    INDEX 01 02:17:55
  TRACK 70 AUDIO
    TITLE "0:"
    INDEX 01 02:21:08
  TRACK 71 AUDIO
    TITLE "2:cjc151_0921"
    INDEX 01 02:22:64
  TRACK 72 AUDIO
    TITLE "0:"
    INDEX 01 02:25:43
  TRACK 73 AUDIO
    TITLE "3:cjc151_0922"
    INDEX 01 02:27:20
  TRACK 74 AUDIO
    TITLE "0:"
    INDEX 01 02:31:20
  TRACK 75 AUDIO
    TITLE "2:cjc151_0923"
    INDEX 01 02:32:74
  TRACK 76 AUDIO
    TITLE "0:"
    INDEX 01 02:34:07
  TRACK 77 AUDIO
    TITLE "3:cjc151_0924"
    INDEX 01 02:35:63
  TRACK 78 AUDIO
    TITLE "0:"
    INDEX 01 02:39:16
  TRACK 79 AUDIO
    TITLE "2:cjc151_0925"
    INDEX 01 02:40:70
  TRACK 80 AUDIO
    TITLE "0:"
    INDEX 01 02:42:02
  TRACK 81 AUDIO
    TITLE "3:cjc151_0926"
    INDEX 01 02:43:61
  TRACK 82 AUDIO
    TITLE "0:"
    INDEX 01 02:47:29
  TRACK 83 AUDIO
    TITLE "2:cjc151_0927"
    INDEX 01 02:49:08
  TRACK 84 AUDIO
    TITLE "0:"
    INDEX 01 02:50:06
  TRACK 85 AUDIO
    TITLE "3:cjc151_0928"
    INDEX 01 02:51:60
  TRACK 86 AUDIO
    TITLE "0:"
    INDEX 01 02:55:23
  TRACK 87 AUDIO
    TITLE "2:cjc151_0929"
    INDEX 01 02:57:02
  TRACK 88 AUDIO
    TITLE "0:"
    INDEX 01 02:58:09
  TRACK 89 AUDIO
    TITLE "3:cjc151_0930"
    INDEX 01 02:59:63
  TRACK 90 AUDIO
    TITLE "0:"
    INDEX 01 03:04:20
